<svg id="Layer_1" data-name="Layer 1" xmlns="http://www.w3.org/2000/svg" viewBox="0 0 492 492"><defs><style>.cls-1{fill:#fff;stroke:#00549f;stroke-linecap:round;stroke-linejoin:round;stroke-width:12px;}.cls-2{fill:#00549f;}</style></defs><rect class="cls-1" x="6" y="6" width="480" height="480" rx="50"/><path class="cls-2" d="M432.59,159h-6.47V140.38a5.7,5.7,0,0,0-3.28-5.16A198.15,198.15,0,0,0,256,134.11a198.15,198.15,0,0,0-166.84,1.11,5.7,5.7,0,0,0-3.28,5.16V159H79.41a17.91,17.91,0,0,0-17.89,17.89v201a17.91,17.91,0,0,0,17.89,17.89H432.59a17.91,17.91,0,0,0,17.89-17.89v-201A17.91,17.91,0,0,0,432.59,159ZM261.71,243.88V144a186.73,186.73,0,0,1,153,0V350.82a198,198,0,0,0-153,0Zm-36.54-109A189,189,0,0,1,250.29,144v89.2L240.9,227a5.7,5.7,0,0,0-6.33,0l-9.4,6.27ZM97.3,164.76v0h0V144a186.68,186.68,0,0,1,116.45-12v25a197.82,197.82,0,0,0-61.9-2.85,5.7,5.7,0,0,0,1.26,11.34,187.13,187.13,0,0,1,60.64,3.17v37.06a199.84,199.84,0,0,0-36.82-4,5.71,5.71,0,0,0-.18,11.42,186.43,186.43,0,0,1,37,4.3v12.68a198.71,198.71,0,0,0-99.52,5.07A5.71,5.71,0,1,0,117.65,246a187.36,187.36,0,0,1,96.1-4.29v2.15a5.72,5.72,0,0,0,8.88,4.75l15.1-10.07L250.29,247V350.82a198.06,198.06,0,0,0-153,0V164.76ZM232,384.34H79.41a6.47,6.47,0,0,1-6.47-6.47v-201a6.47,6.47,0,0,1,6.47-6.47h6.47V365.69a5.71,5.71,0,0,0,5.71,5.71H232ZM105.13,360a186.57,186.57,0,0,1,137.33,0Zm163.43,24.36H243.44V371.4h25.12ZM406.87,360H269.54A186.57,186.57,0,0,1,406.87,360Zm32.19,17.89a6.47,6.47,0,0,1-6.47,6.47H280V371.4H420.41a5.71,5.71,0,0,0,5.71-5.71V170.45h6.47a6.47,6.47,0,0,1,6.47,6.47Z" transform="translate(-10 -10)"/><path class="cls-2" d="M297.45,303.38c-6.32,1.33-12.64,3-18.8,4.92a5.71,5.71,0,0,0,3.42,10.89c5.8-1.83,11.77-3.38,17.72-4.63a5.71,5.71,0,1,0-2.34-11.18Z" transform="translate(-10 -10)"/><path class="cls-2" d="M396.06,319.45a5.71,5.71,0,0,0,1.71-11.16,197.82,197.82,0,0,0-75.24-8.51,5.71,5.71,0,0,0,.9,11.38,186.46,186.46,0,0,1,70.91,8A5.7,5.7,0,0,0,396.06,319.45Z" transform="translate(-10 -10)"/><path class="cls-2" d="M280.36,295a5.68,5.68,0,0,0,1.71-.26,186.37,186.37,0,0,1,112.27,0,5.71,5.71,0,0,0,3.43-10.89,197.65,197.65,0,0,0-119.12,0A5.71,5.71,0,0,0,280.36,295Z" transform="translate(-10 -10)"/><path class="cls-2" d="M280.36,270.74a5.7,5.7,0,0,0,1.71-.27,186.6,186.6,0,0,1,65-8.4,5.71,5.71,0,0,0,.54-11.4,198.11,198.11,0,0,0-69,8.91,5.71,5.71,0,0,0,1.71,11.16Z" transform="translate(-10 -10)"/><path class="cls-2" d="M397.77,259.58a199.92,199.92,0,0,0-25.09-6.12,5.71,5.71,0,1,0-2,11.24,189.9,189.9,0,0,1,23.64,5.77,5.71,5.71,0,1,0,3.43-10.89Z" transform="translate(-10 -10)"/><path class="cls-2" d="M280.36,246.31a5.7,5.7,0,0,0,1.71-.27,186.52,186.52,0,0,1,112.27,0,5.71,5.71,0,1,0,3.43-10.89,197.8,197.8,0,0,0-119.12,0,5.71,5.71,0,0,0,1.71,11.16Z" transform="translate(-10 -10)"/><path class="cls-2" d="M316.27,202.87a199.5,199.5,0,0,0-37.62,7.92A5.71,5.71,0,0,0,280.36,222a6,6,0,0,0,1.71-.26,186.58,186.58,0,0,1,35.46-7.47,5.71,5.71,0,0,0-1.26-11.35Z" transform="translate(-10 -10)"/><path class="cls-2" d="M341.16,213.1a186.7,186.7,0,0,1,53.18,8.59,6,6,0,0,0,1.72.26,5.71,5.71,0,0,0,1.71-11.16,199,199,0,0,0-56.43-9.11,5.71,5.71,0,0,0-.18,11.42Z" transform="translate(-10 -10)"/><path class="cls-2" d="M358.89,189.93a5.7,5.7,0,0,0,1.26-11.34,197.43,197.43,0,0,0-81.5,7.92,5.71,5.71,0,0,0,3.42,10.89A186.2,186.2,0,0,1,358.89,189.93Z" transform="translate(-10 -10)"/><path class="cls-2" d="M397.77,186.51c-4.13-1.3-8.35-2.47-12.54-3.5a5.71,5.71,0,1,0-2.7,11.1c4,1,7.93,2.07,11.81,3.29a5.71,5.71,0,0,0,3.43-10.89Z" transform="translate(-10 -10)"/><path class="cls-2" d="M280.36,173.24a5.7,5.7,0,0,0,1.71-.27c3.88-1.22,7.86-2.33,11.81-3.29a5.71,5.71,0,1,0-2.7-11.09c-4.2,1-8.41,2.19-12.53,3.49a5.71,5.71,0,0,0,1.71,11.16Z" transform="translate(-10 -10)"/><path class="cls-2" d="M317.52,165.51A186.18,186.18,0,0,1,394.34,173a5.71,5.71,0,1,0,3.43-10.89,197.49,197.49,0,0,0-81.51-7.92,5.71,5.71,0,0,0,1.26,11.35Z" transform="translate(-10 -10)"/><path class="cls-2" d="M133,303.38c-6.32,1.33-12.65,3-18.81,4.92a5.71,5.71,0,0,0,3.43,10.89c5.8-1.83,11.77-3.38,17.72-4.63A5.71,5.71,0,1,0,133,303.38Z" transform="translate(-10 -10)"/><path class="cls-2" d="M231.64,319.45a5.71,5.71,0,0,0,1.71-11.16,197.75,197.75,0,0,0-75.23-8.51,5.71,5.71,0,0,0,.9,11.38,186.48,186.48,0,0,1,70.91,8A5.68,5.68,0,0,0,231.64,319.45Z" transform="translate(-10 -10)"/><path class="cls-2" d="M115.94,295a5.7,5.7,0,0,0,1.72-.26,186.37,186.37,0,0,1,112.27,0,5.71,5.71,0,1,0,3.42-10.89,197.65,197.65,0,0,0-119.12,0A5.71,5.71,0,0,0,115.94,295Z" transform="translate(-10 -10)"/><path class="cls-2" d="M115.94,270.74a5.71,5.71,0,0,0,1.72-.27,186.57,186.57,0,0,1,65-8.4,5.71,5.71,0,1,0,.54-11.4,198.19,198.19,0,0,0-69,8.91,5.71,5.71,0,0,0,1.71,11.16Z" transform="translate(-10 -10)"/><path class="cls-2" d="M206.29,264.7a189.9,189.9,0,0,1,23.64,5.77,5.71,5.71,0,1,0,3.42-10.89,199.77,199.77,0,0,0-25.08-6.12,5.71,5.71,0,0,0-2,11.24Z" transform="translate(-10 -10)"/><path class="cls-2" d="M151.85,202.87a199.83,199.83,0,0,0-37.62,7.92A5.71,5.71,0,0,0,115.94,222a6,6,0,0,0,1.72-.26,186.65,186.65,0,0,1,35.45-7.47,5.71,5.71,0,1,0-1.26-11.35Z" transform="translate(-10 -10)"/><path class="cls-2" d="M110.5,193.66a5.72,5.72,0,0,0,7.16,3.74,186.2,186.2,0,0,1,76.82-7.47,5.7,5.7,0,0,0,1.26-11.34,197.32,197.32,0,0,0-81.51,7.92A5.69,5.69,0,0,0,110.5,193.66Z" transform="translate(-10 -10)"/><path class="cls-2" d="M115.94,173.24a5.71,5.71,0,0,0,1.72-.27c3.88-1.22,7.85-2.33,11.81-3.29a5.71,5.71,0,1,0-2.7-11.09c-4.2,1-8.42,2.19-12.54,3.49a5.71,5.71,0,0,0,1.71,11.16Z" transform="translate(-10 -10)"/></svg>